<svg id="Component_7_1" data-name="Component 7 – 1" xmlns="http://www.w3.org/2000/svg" width="115" height="115" viewBox="0 0 115 115">
  <g id="Ellipse_37" data-name="Ellipse 37" fill="#fff" stroke="#707070" stroke-width="3">
    <circle cx="57.5" cy="57.5" r="57.5" stroke="none"/>
    <circle cx="57.5" cy="57.5" r="56" fill="none"/>
  </g>
  <path id="code-solid" d="M44.74.089a3.647,3.647,0,0,0-4.508,2.5l-14.572,51a3.647,3.647,0,1,0,7.013,2l14.572-51A3.647,3.647,0,0,0,44.74.089Zm9.176,13.673a3.649,3.649,0,0,0,0,5.157L64.082,29.1,53.9,39.273a3.647,3.647,0,0,0,5.157,5.157l12.75-12.75a3.649,3.649,0,0,0,0-5.157l-12.75-12.75a3.649,3.649,0,0,0-5.157,0ZM19,13.761a3.649,3.649,0,0,0-5.157,0L1.092,26.512a3.649,3.649,0,0,0,0,5.157l12.75,12.75A3.647,3.647,0,0,0,19,39.262L8.822,29.1,19,18.918a3.649,3.649,0,0,0,0-5.157Z" transform="translate(20.975 28.054)"/>
</svg>
