<svg id="Component_6_1" data-name="Component 6 – 1" xmlns="http://www.w3.org/2000/svg" width="115" height="115" viewBox="0 0 115 115">
  <g id="Ellipse_36" data-name="Ellipse 36" fill="#fff" stroke="#191919" stroke-width="7">
    <circle cx="57.5" cy="57.5" r="57.5" stroke="none"/>
    <circle cx="57.5" cy="57.5" r="54" fill="none"/>
  </g>
  <g id="Layer_2" data-name="Layer 2" transform="translate(21.985 26.969)">
    <g id="Object">
      <path id="Path_4" data-name="Path 4" d="M58.5,62a2.3,2.3,0,0,0,2.3-2.29V35.24h6a4,4,0,0,0,2.48-7.09L61.53,21.4V10.16a2.38,2.38,0,0,0-2.38-2.38H54.23a2.38,2.38,0,0,0-2.38,2.38V13L38,1a4,4,0,0,0-5.22,0L1.37,28.25a4,4,0,0,0,2.61,7h6v24.5A2.3,2.3,0,0,0,12.29,62H25.83V44.21a4.56,4.56,0,0,1,4.56-4.55h10A4.56,4.56,0,0,1,45,44.21V62Z"/>
    </g>
  </g>
</svg>
